<?xml version="1.0" encoding="UTF-8"?>
<svg width="351px" height="68px" viewBox="0 0 351 68" version="1.1" xmlns="http://www.w3.org/2000/svg" xmlns:xlink="http://www.w3.org/1999/xlink" xmlns:sketch="http://www.bohemiancoding.com/sketch/ns">
    <!-- Generator: Sketch 3.3 (11970) - http://www.bohemiancoding.com/sketch -->
    <title>Group</title>
    <desc>Created with Sketch.</desc>
    <defs></defs>
    <g id="Page-1" stroke="none" stroke-width="1" fill="none" fill-rule="evenodd" sketch:type="MSPage">
        <g id="Group" sketch:type="MSLayerGroup" transform="translate(0.000000, -18.000000)">
            <path d="M44.9,59.5 L45,59.5 L45,53.1 L44,53.7 L43,53.1 L43,59.5 L43.1,59.5 L44,58.9 L44.9,59.5 Z" id="Shape" fill="#7D939F" sketch:type="MSShapeGroup"></path>
            <path d="M59.7,43.4 L59.7,44.6 L58.7,45.1 L61.6,46.8 L64.3,48.4 L64.3,47.2 L65,46.8 L65.3,46.6 L59.7,43.4 Z" id="Shape" fill="#7D939F" sketch:type="MSShapeGroup"></path>
            <path d="M28.3,43.4 L22.7,46.6 L23,46.8 L23.7,47.2 L23.7,48.4 L26.4,46.8 L29.3,45.1 L28.3,44.6 L28.3,43.4 Z" id="Shape" fill="#7D939F" sketch:type="MSShapeGroup"></path>
            <path d="M45,19.1 L44,18.5 L43,19.1 L30.3,26.4 L29.3,27 L29.3,28.1 L29.3,42.8 L29.3,44 L30.3,44.6 L34.1,46.8 L37.6,48.8 L43,51.9 L44,52.5 L45,51.9 L50.4,48.8 L53.9,46.8 L57.7,44.6 L58.7,44 L58.7,42.8 L58.7,28.1 L58.7,27 L57.7,26.4 L45,19.1 L45,19.1 Z M43,37.2 L43,46.8 L43,47.3 L43,48.1 L40.7,46.8 L33.6,42.7 L32.6,42.1 L32.6,40.9 L32.6,30 L33.3,30.4 L42,35.4 L43,36 L43,37.2 L43,37.2 Z M44,34.3 L43,33.7 L34.3,28.7 L33.6,28.3 L43,22.9 L44,22.3 L45,22.9 L54.4,28.3 L53.7,28.7 L45,33.7 L44,34.3 L44,34.3 Z M55.4,40.9 L55.4,42.1 L54.4,42.7 L47.3,46.8 L45,48.1 L45,47.3 L45,46.8 L45,37.2 L45,36 L46,35.4 L54.7,30.4 L55.4,30 L55.4,40.9 L55.4,40.9 Z" id="Shape" fill="#02B594" sketch:type="MSShapeGroup"></path>
            <path d="M46.4,61.5 L45,60.7 L44,60.1 L43,60.7 L41.6,61.5 L34,65.9 L33,66.5 L33,67.6 L33,78 L33,79.2 L34,79.8 L43,85 L44,85.6 L45,85 L54,79.8 L55,79.2 L55,78 L55,67.6 L55,66.5 L54,65.9 L46.4,61.5 L46.4,61.5 Z M43,74.5 L43,81.4 L43,82.2 L36.3,78.3 L35.3,77.7 L35.3,76.5 L35.3,68.7 L36,69.1 L42,72.6 L43,73.2 L43,74.5 L43,74.5 Z M44,71.6 L43,71 L37,67.5 L36.3,67.1 L43,63.2 L44,62.6 L45,63.2 L51.7,67.1 L51,67.6 L45,71.1 L44,71.6 L44,71.6 Z M52.7,76.7 L52.7,77.9 L51.7,78.5 L45,82.3 L45,81.5 L45,74.6 L45,73.4 L46,72.8 L52,69.3 L52.7,68.9 L52.7,76.7 L52.7,76.7 Z" id="Shape" fill="#7D939F" sketch:type="MSShapeGroup"></path>
            <path d="M86.3,47.2 L85.6,46.8 L77.3,42 L76.3,41.4 L75.3,42 L67,46.8 L66.3,47.2 L65.3,47.8 L65.3,48.8 L65.3,49 L65.3,59.4 L65.3,59.5 L65.3,60.5 L66.3,61.1 L67,61.5 L75.3,66.3 L76.3,66.9 L77.3,66.3 L85.6,61.5 L86.3,61.1 L87.3,60.5 L87.3,59.3 L87.3,48.9 L87.3,47.7 L86.3,47.2 L86.3,47.2 Z M75.3,55.9 L75.3,59.5 L75.3,61.5 L75.3,62.8 L75.3,63.6 L71.6,61.5 L68.6,59.8 L68.1,59.5 L67.6,59.2 L67.6,58 L67.6,50.2 L68.3,50.6 L74.3,54.1 L75.3,54.7 L75.3,55.9 L75.3,55.9 Z M76.3,53 L75.3,52.4 L69.3,48.9 L69,48.8 L68.5,48.5 L71.5,46.8 L75.2,44.7 L76.2,44.1 L77.2,44.7 L80.9,46.8 L83.9,48.5 L83.4,48.8 L83.1,49 L77.1,52.5 L76.3,53 L76.3,53 Z M85,58 L85,59.2 L84.5,59.5 L84,59.8 L81,61.5 L77.3,63.6 L77.3,62.8 L77.3,61.5 L77.3,59.5 L77.3,55.9 L77.3,54.7 L78.3,54.1 L84.3,50.6 L85,50.2 L85,58 L85,58 Z" id="Shape" fill="#7D939F" sketch:type="MSShapeGroup"></path>
            <path d="M21,46.8 L12.7,42 L11.7,41.4 L10.7,42 L2.4,46.8 L1.7,47.2 L0.7,47.8 L0.7,49 L0.7,59.4 L0.7,60.6 L1.7,61.2 L2.4,61.6 L10.7,66.4 L11.7,67 L12.7,66.4 L21,61.6 L21.7,61.2 L22.7,60.6 L22.7,59.6 L22.7,59.5 L22.7,48.9 L22.7,48.7 L22.7,47.7 L21.7,47.1 L21,46.8 L21,46.8 Z M10.7,55.9 L10.7,59.5 L10.7,61.5 L10.7,62.8 L10.7,63.6 L7,61.5 L4,59.8 L3.5,59.5 L3,59.2 L3,58 L3,50.2 L3.7,50.6 L9.7,54.1 L10.7,54.7 L10.7,55.9 L10.7,55.9 Z M11.7,53 L10.7,52.4 L4.7,48.9 L4.4,48.7 L4,48.5 L7,46.8 L10.7,44.7 L11.7,44.1 L12.7,44.7 L16.4,46.8 L19.4,48.5 L19,48.8 L18.7,49 L12.7,52.5 L11.7,53 L11.7,53 Z M20.4,58 L20.4,59.1 L19.9,59.4 L19.4,59.7 L16.4,61.4 L12.7,63.5 L12.7,62.7 L12.7,61.4 L12.7,59.4 L12.7,55.8 L12.7,54.6 L13.7,54 L19.7,50.5 L20.4,50.1 L20.4,58 L20.4,58 Z" id="Shape" fill="#7D939F" sketch:type="MSShapeGroup"></path>
            <text id="semserver" sketch:type="MSTextLayer" font-family="Input Sans Narrow" font-size="60" font-style="condensed" font-weight="260" letter-spacing="-9.39999962" fill="#1C9888">
                <tspan x="98" y="70">s</tspan>
                <tspan x="124.436364" y="70" letter-spacing="-8.39999962">em</tspan>
                <tspan x="194.363638" y="70">s</tspan>
                <tspan x="220.800002" y="70" letter-spacing="-8.39999962">e</tspan>
                <tspan x="248.236366" y="70" letter-spacing="-5.4000001">r</tspan>
                <tspan x="273.709093" y="70" letter-spacing="-7.4000001">v</tspan>
                <tspan x="297.18182" y="70" letter-spacing="-8.39999962">e</tspan>
                <tspan x="324.618184" y="70">r</tspan>
            </text>
        </g>
    </g>
</svg>